<svg xmlns="http://www.w3.org/2000/svg" viewBox="-1 2 120 31" shape-rendering="crispEdges"><title>Mutiny</title><g fill="#e9e2d0"><rect x="17" y="3" width="1.02" height="1.02"/><rect x="40" y="3" width="1.02" height="1.02"/><rect x="92" y="3" width="2.02" height="1.02"/><rect x="114" y="3" width="3.02" height="1.02"/><rect x="2" y="4" width="3.02" height="1.02"/><rect x="16" y="4" width="3.02" height="1.02"/><rect x="26" y="4" width="4.02" height="1.02"/><rect x="38" y="4" width="4.02" height="1.02"/><rect x="54" y="4" width="11.02" height="1.02"/><rect x="69" y="4" width="3.02" height="1.02"/><rect x="79" y="4" width="3.02" height="1.02"/><rect x="91" y="4" width="4.02" height="1.02"/><rect x="99" y="4" width="4.02" height="1.02"/><rect x="114" y="4" width="4.02" height="1.02"/><rect x="1" y="5" width="5.02" height="1.02"/><rect x="15" y="5" width="5.02" height="1.02"/><rect x="26" y="5" width="4.02" height="1.02"/><rect x="38" y="5" width="4.02" height="1.02"/><rect x="46" y="5" width="19.02" height="1.02"/><rect x="68" y="5" width="4.02" height="1.02"/><rect x="78" y="5" width="4.02" height="1.02"/><rect x="91" y="5" width="4.02" height="1.02"/><rect x="99" y="5" width="4.02" height="1.02"/><rect x="113" y="5" width="5.02" height="1.02"/><rect x="1" y="6" width="5.02" height="1.02"/><rect x="15" y="6" width="5.02" height="1.02"/><rect x="26" y="6" width="4.02" height="1.02"/><rect x="38" y="6" width="4.02" height="1.02"/><rect x="45" y="6" width="20.02" height="1.02"/><rect x="68" y="6" width="4.02" height="1.02"/><rect x="78" y="6" width="5.02" height="1.02"/><rect x="91" y="6" width="4.02" height="1.02"/><rect x="99" y="6" width="5.02" height="1.02"/><rect x="112" y="6" width="5.02" height="1.02"/><rect x="1" y="7" width="6.02" height="1.02"/><rect x="14" y="7" width="6.02" height="1.02"/><rect x="26" y="7" width="4.02" height="1.02"/><rect x="38" y="7" width="4.02" height="1.02"/><rect x="45" y="7" width="20.02" height="1.02"/><rect x="68" y="7" width="4.02" height="1.02"/><rect x="78" y="7" width="5.02" height="1.02"/><rect x="91" y="7" width="4.02" height="1.02"/><rect x="100" y="7" width="5.02" height="1.02"/><rect x="112" y="7" width="5.02" height="1.02"/><rect x="1" y="8" width="6.02" height="1.02"/><rect x="14" y="8" width="6.02" height="1.02"/><rect x="26" y="8" width="4.02" height="1.02"/><rect x="38" y="8" width="4.02" height="1.02"/><rect x="45" y="8" width="13.02" height="1.02"/><rect x="62" y="8" width="2.02" height="1.02"/><rect x="68" y="8" width="4.02" height="1.02"/><rect x="78" y="8" width="6.02" height="1.02"/><rect x="91" y="8" width="4.02" height="1.02"/><rect x="100" y="8" width="6.02" height="1.02"/><rect x="111" y="8" width="5.02" height="1.02"/><rect x="1" y="9" width="7.02" height="1.02"/><rect x="13" y="9" width="7.02" height="1.02"/><rect x="26" y="9" width="4.02" height="1.02"/><rect x="38" y="9" width="4.02" height="1.02"/><rect x="53" y="9" width="4.02" height="1.02"/><rect x="62" y="9" width="2.02" height="1.02"/><rect x="68" y="9" width="4.02" height="1.02"/><rect x="78" y="9" width="7.02" height="1.02"/><rect x="91" y="9" width="4.02" height="1.02"/><rect x="101" y="9" width="5.02" height="1.02"/><rect x="110" y="9" width="5.02" height="1.02"/><rect x="1" y="10" width="7.02" height="1.02"/><rect x="13" y="10" width="7.02" height="1.02"/><rect x="26" y="10" width="4.02" height="1.02"/><rect x="38" y="10" width="4.02" height="1.02"/><rect x="53" y="10" width="4.02" height="1.02"/><rect x="62" y="10" width="2.02" height="1.02"/><rect x="68" y="10" width="4.02" height="1.02"/><rect x="78" y="10" width="7.02" height="1.02"/><rect x="91" y="10" width="4.02" height="1.02"/><rect x="102" y="10" width="5.02" height="1.02"/><rect x="110" y="10" width="5.02" height="1.02"/><rect x="1" y="11" width="8.02" height="1.02"/><rect x="12" y="11" width="9.02" height="1.02"/><rect x="26" y="11" width="4.02" height="1.02"/><rect x="38" y="11" width="4.02" height="1.02"/><rect x="53" y="11" width="4.02" height="1.02"/><rect x="68" y="11" width="5.02" height="1.02"/><rect x="78" y="11" width="8.02" height="1.02"/><rect x="91" y="11" width="4.02" height="1.02"/><rect x="102" y="11" width="6.02" height="1.02"/><rect x="109" y="11" width="5.02" height="1.02"/><rect x="1" y="12" width="9.02" height="1.02"/><rect x="12" y="12" width="9.02" height="1.02"/><rect x="26" y="12" width="4.02" height="1.02"/><rect x="38" y="12" width="4.02" height="1.02"/><rect x="53" y="12" width="4.02" height="1.02"/><rect x="68" y="12" width="5.02" height="1.02"/><rect x="78" y="12" width="8.02" height="1.02"/><rect x="91" y="12" width="4.02" height="1.02"/><rect x="103" y="12" width="10.02" height="1.02"/><rect x="1" y="13" width="4.02" height="1.02"/><rect x="6" y="13" width="4.02" height="1.02"/><rect x="11" y="13" width="10.02" height="1.02"/><rect x="26" y="13" width="4.02" height="1.02"/><rect x="38" y="13" width="4.02" height="1.02"/><rect x="53" y="13" width="4.02" height="1.02"/><rect x="68" y="13" width="5.02" height="1.02"/><rect x="78" y="13" width="9.02" height="1.02"/><rect x="90" y="13" width="5.02" height="1.02"/><rect x="104" y="13" width="9.02" height="1.02"/><rect x="1" y="14" width="4.02" height="1.02"/><rect x="6" y="14" width="9.02" height="1.02"/><rect x="17" y="14" width="4.02" height="1.02"/><rect x="26" y="14" width="4.02" height="1.02"/><rect x="38" y="14" width="4.02" height="1.02"/><rect x="53" y="14" width="4.02" height="1.02"/><rect x="68" y="14" width="5.02" height="1.02"/><rect x="78" y="14" width="4.02" height="1.02"/><rect x="83" y="14" width="5.02" height="1.02"/><rect x="90" y="14" width="5.02" height="1.02"/><rect x="105" y="14" width="7.02" height="1.02"/><rect x="1" y="15" width="4.02" height="1.02"/><rect x="7" y="15" width="8.02" height="1.02"/><rect x="17" y="15" width="4.02" height="1.02"/><rect x="26" y="15" width="4.02" height="1.02"/><rect x="38" y="15" width="4.02" height="1.02"/><rect x="53" y="15" width="4.02" height="1.02"/><rect x="68" y="15" width="5.02" height="1.02"/><rect x="78" y="15" width="4.02" height="1.02"/><rect x="84" y="15" width="4.02" height="1.02"/><rect x="90" y="15" width="5.02" height="1.02"/><rect x="105" y="15" width="6.02" height="1.02"/><rect x="1" y="16" width="4.02" height="1.02"/><rect x="7" y="16" width="7.02" height="1.02"/><rect x="17" y="16" width="4.02" height="1.02"/><rect x="26" y="16" width="4.02" height="1.02"/><rect x="38" y="16" width="4.02" height="1.02"/><rect x="53" y="16" width="5.02" height="1.02"/><rect x="68" y="16" width="5.02" height="1.02"/><rect x="78" y="16" width="4.02" height="1.02"/><rect x="84" y="16" width="5.02" height="1.02"/><rect x="90" y="16" width="5.02" height="1.02"/><rect x="106" y="16" width="5.02" height="1.02"/><rect x="0" y="17" width="5.02" height="1.02"/><rect x="8" y="17" width="6.02" height="1.02"/><rect x="17" y="17" width="4.02" height="1.02"/><rect x="26" y="17" width="5.02" height="1.02"/><rect x="38" y="17" width="4.02" height="1.02"/><rect x="53" y="17" width="5.02" height="1.02"/><rect x="68" y="17" width="5.02" height="1.02"/><rect x="78" y="17" width="4.02" height="1.02"/><rect x="85" y="17" width="10.02" height="1.02"/><rect x="106" y="17" width="4.02" height="1.02"/><rect x="0" y="18" width="5.02" height="1.02"/><rect x="8" y="18" width="5.02" height="1.02"/><rect x="17" y="18" width="5.02" height="1.02"/><rect x="26" y="18" width="5.02" height="1.02"/><rect x="37" y="18" width="5.02" height="1.02"/><rect x="53" y="18" width="5.02" height="1.02"/><rect x="68" y="18" width="5.02" height="1.02"/><rect x="78" y="18" width="4.02" height="1.02"/><rect x="85" y="18" width="10.02" height="1.02"/><rect x="106" y="18" width="4.02" height="1.02"/><rect x="0" y="19" width="5.02" height="1.02"/><rect x="9" y="19" width="4.02" height="1.02"/><rect x="17" y="19" width="5.02" height="1.02"/><rect x="26" y="19" width="5.02" height="1.02"/><rect x="37" y="19" width="5.02" height="1.02"/><rect x="53" y="19" width="5.02" height="1.02"/><rect x="68" y="19" width="5.02" height="1.02"/><rect x="77" y="19" width="5.02" height="1.02"/><rect x="86" y="19" width="9.02" height="1.02"/><rect x="106" y="19" width="4.02" height="1.02"/><rect x="0" y="20" width="5.02" height="1.02"/><rect x="10" y="20" width="2.02" height="1.02"/><rect x="17" y="20" width="5.02" height="1.02"/><rect x="26" y="20" width="5.02" height="1.02"/><rect x="37" y="20" width="5.02" height="1.02"/><rect x="53" y="20" width="5.02" height="1.02"/><rect x="68" y="20" width="5.02" height="1.02"/><rect x="77" y="20" width="5.02" height="1.02"/><rect x="87" y="20" width="8.02" height="1.02"/><rect x="106" y="20" width="5.02" height="1.02"/><rect x="0" y="21" width="5.02" height="1.02"/><rect x="10" y="21" width="2.02" height="1.02"/><rect x="18" y="21" width="4.02" height="1.02"/><rect x="26" y="21" width="5.02" height="1.02"/><rect x="37" y="21" width="5.02" height="1.02"/><rect x="53" y="21" width="5.02" height="1.02"/><rect x="68" y="21" width="5.02" height="1.02"/><rect x="77" y="21" width="5.02" height="1.02"/><rect x="87" y="21" width="8.02" height="1.02"/><rect x="106" y="21" width="5.02" height="1.02"/><rect x="0" y="22" width="4.02" height="1.02"/><rect x="18" y="22" width="4.02" height="1.02"/><rect x="27" y="22" width="5.02" height="1.02"/><rect x="36" y="22" width="5.02" height="1.02"/><rect x="53" y="22" width="5.02" height="1.02"/><rect x="68" y="22" width="5.02" height="1.02"/><rect x="77" y="22" width="5.02" height="1.02"/><rect x="88" y="22" width="7.02" height="1.02"/><rect x="106" y="22" width="5.02" height="1.02"/><rect x="0" y="23" width="4.02" height="1.02"/><rect x="11" y="23" width="1.02" height="1.02"/><rect x="18" y="23" width="4.02" height="1.02"/><rect x="28" y="23" width="12.02" height="1.02"/><rect x="53" y="23" width="5.02" height="1.02"/><rect x="68" y="23" width="5.02" height="1.02"/><rect x="77" y="23" width="5.02" height="1.02"/><rect x="88" y="23" width="6.02" height="1.02"/><rect x="106" y="23" width="5.02" height="1.02"/><rect x="0" y="24" width="4.02" height="1.02"/><rect x="18" y="24" width="5.02" height="1.02"/><rect x="28" y="24" width="12.02" height="1.02"/><rect x="53" y="24" width="5.02" height="1.02"/><rect x="68" y="24" width="5.02" height="1.02"/><rect x="77" y="24" width="5.02" height="1.02"/><rect x="89" y="24" width="5.02" height="1.02"/><rect x="106" y="24" width="5.02" height="1.02"/><rect x="0" y="25" width="4.02" height="1.02"/><rect x="18" y="25" width="5.02" height="1.02"/><rect x="29" y="25" width="10.02" height="1.02"/><rect x="53" y="25" width="5.02" height="1.02"/><rect x="68" y="25" width="5.02" height="1.02"/><rect x="77" y="25" width="5.02" height="1.02"/><rect x="90" y="25" width="4.02" height="1.02"/><rect x="106" y="25" width="5.02" height="1.02"/><rect x="0" y="26" width="4.02" height="1.02"/><rect x="18" y="26" width="5.02" height="1.02"/><rect x="29" y="26" width="10.02" height="1.02"/><rect x="53" y="26" width="5.02" height="1.02"/><rect x="68" y="26" width="5.02" height="1.02"/><rect x="77" y="26" width="5.02" height="1.02"/><rect x="90" y="26" width="4.02" height="1.02"/><rect x="106" y="26" width="5.02" height="1.02"/><rect x="0" y="27" width="4.02" height="1.02"/><rect x="19" y="27" width="3.02" height="1.02"/><rect x="33" y="27" width="4.02" height="1.02"/><rect x="54" y="27" width="4.02" height="1.02"/><rect x="69" y="27" width="4.02" height="1.02"/><rect x="77" y="27" width="4.02" height="1.02"/><rect x="91" y="27" width="3.02" height="1.02"/><rect x="107" y="27" width="3.02" height="1.02"/><rect x="1" y="28" width="2.02" height="1.02"/><rect x="20" y="28" width="2.02" height="1.02"/><rect x="33" y="28" width="2.02" height="1.02"/><rect x="55" y="28" width="2.02" height="1.02"/><rect x="70" y="28" width="2.02" height="1.02"/><rect x="78" y="28" width="2.02" height="1.02"/><rect x="108" y="28" width="2.02" height="1.02"/><rect x="1" y="29" width="2.02" height="1.02"/><rect x="33" y="29" width="2.02" height="1.02"/><rect x="55" y="29" width="2.02" height="1.02"/><rect x="78" y="29" width="2.02" height="1.02"/><rect x="108" y="29" width="2.02" height="1.02"/><rect x="1" y="30" width="1.02" height="1.02"/><rect x="34" y="30" width="1.02" height="1.02"/><rect x="79" y="30" width="1.02" height="1.02"/><rect x="108" y="30" width="1.02" height="1.02"/><rect x="55" y="31" width="1.02" height="1.02"/><rect x="109" y="31" width="1.02" height="1.02"/></g></svg>
